<?xml version="1.0"?>
<svg width="1042" height="1280" xmlns="http://www.w3.org/2000/svg" xmlns:svg="http://www.w3.org/2000/svg" preserveAspectRatio="xMidYMid meet">
 <metadata>Created by potrace 1.15, written by Peter Selinger 2001-2017</metadata>
 <g class="layer">
  <title>Layer 1</title>
  <g fill="#000000" id="svg_1" transform="translate(0 1280) scale(0.1 -0.1)">
   <path d="m4420,12795c-8,-2 -49,-9 -90,-15c-406,-65 -776,-358 -944,-746c-38,-87 -86,-243 -86,-280c0,-12 -4,-25 -8,-28c-5,-3 -51,-12 -104,-20c-217,-35 -422,-135 -578,-282c-98,-93 -162,-179 -221,-299c-43,-89 -99,-266 -99,-316c0,-18 -10,-23 -72,-33c-60,-11 -158,-45 -233,-83c-241,-121 -414,-336 -487,-604c-19,-71 -23,-107 -22,-234c1,-174 19,-256 84,-394c101,-211 280,-381 488,-466c414,-168 877,-28 1139,344c1,2 33,-10 70,-27c133,-61 219,-77 403,-77c178,1 222,9 373,67c84,32 111,30 62,-5c-140,-102 -229,-204 -295,-342c-60,-124 -80,-201 -87,-335c-18,-344 166,-661 472,-813c275,-137 607,-118 861,49c58,38 181,153 221,207l21,27l72,-30c126,-54 220,-73 360,-73c142,0 235,17 343,63l71,30l31,-29c41,-39 166,-122 240,-158c177,-88 320,-123 531,-130c239,-8 410,26 607,121c180,86 379,258 487,420c90,134 170,327 186,450l7,44l86,27c360,112 659,381 794,717c264,654 -109,1395 -821,1627c-153,50 -250,65 -432,65c-170,0 -272,-13 -401,-53l-60,-19l8,46c4,26 8,130 7,232c-1,165 -4,195 -27,282c-30,112 -93,266 -145,353c-102,170 -273,348 -437,457c-115,75 -153,95 -262,139c-214,86 -381,114 -628,106c-232,-7 -380,-42 -581,-137l-100,-47l-72,42c-133,78 -311,137 -472,155c-78,9 -225,12 -260,5z" fill="#ffffff" id="svg_2"/>
   <path d="m1638,8670c-353,-8 -363,-10 -372,-72c-2,-18 -12,-181 -20,-363c-32,-648 -240,-4222 -247,-4229c-2,-2 -220,-8 -483,-12l-479,-9l-19,-26c-19,-25 -19,-36 -4,-620c33,-1243 48,-1822 66,-2506c20,-803 19,-783 47,-811l25,-25l671,7c370,3 1327,11 2127,16c1900,12 2332,18 2344,30c7,7 900,10 2543,10l2534,0l24,25l25,24l0,1816l0,1816l-25,24c-13,14 -34,25 -45,25c-12,0 -501,-208 -1088,-461c-587,-254 -1074,-464 -1082,-466c-14,-4 -19,58 -43,494c-30,547 -30,545 -93,551c-20,2 -446,-171 -1374,-559c-740,-309 -1353,-563 -1362,-566c-17,-5 -18,15 -19,313c-1,176 -4,448 -8,606c-5,258 -8,289 -24,305c-17,17 -52,18 -535,18l-517,0l-27,370c-118,1627 -229,3124 -234,3140c-12,45 -31,48 -454,72c-223,12 -418,20 -433,17c-42,-9 -54,-38 -61,-154c-10,-162 -176,-3410 -176,-3437c0,-23 -1,-23 -120,-23c-116,0 -120,1 -124,23c-3,12 -95,1032 -206,2267c-110,1235 -203,2264 -207,2288c-3,23 -13,53 -23,65c-22,27 -49,28 -502,17z" fill="#ffffff" id="svg_3"/>
  </g>
 </g>
</svg>